<?xml version="1.0" encoding="UTF-8"?>
<svg id="Layer_1" xmlns="http://www.w3.org/2000/svg" version="1.1" xmlns:xlink="http://www.w3.org/1999/xlink" viewBox="153 310 420 408" shape-rendering="geometricPrecision">
  <!-- Generator: Adobe Illustrator 30.2.1, SVG Export Plug-In . SVG Version: 2.1.1 Build 1)  -->
  <defs>
    <style>
      .st0 {
        fill: #bbd9b8;
      }

      .st1 {
        fill: #a194dc;
      }

      .st2 {
        fill: #a393dd;
      }

      .st3 {
        fill: #f6f6f2;
      }

      .st4 {
        fill: #94bddb;
      }

      .st5 {
        fill: #8f87ce;
      }

      .st6 {
        fill: #95bddc;
      }

      .st7 {
        fill: #262728;
      }

      .st8 {
        fill: #9890d5;
      }

      .st9 {
        fill: #90cedc;
      }

      .st10 {
        fill: #efeabe;
      }

      .st11 {
        fill: #9da5dd;
      }

      .st12 {
        fill: #f8f2d9;
      }

      .st13 {
        fill: #91c7d9;
      }

      .st14 {
        fill: #91c9dc;
      }

      .st15 {
        fill: #9d99db;
      }

      .st16 {
        fill: #f1eabd;
      }

      .st17 {
        fill: #9189cf;
      }

      .st18 {
        fill: #988dd5;
      }

      .st19 {
        fill: #9aaedd;
      }

      .st20 {
        fill: #9798d6;
      }

      .st21 {
        fill: #9b9eda;
      }

      .st22 {
        fill: #8ed1d8;
      }

      .st23 {
        fill: #a199dd;
      }

      .st24 {
        fill: #9ab0dd;
      }

      .st25 {
        fill: #90cddc;
      }

      .st26 {
        fill: #99b3dd;
      }

      .st27 {
        fill: #e7e8bb;
      }

      .st28 {
        fill: url(#linear-gradient1);
      }

      .st29 {
        fill: #f0f0f0;
      }

      .st30 {
        fill: #f1eabc;
      }

      .st31 {
        fill: #9e96db;
      }

      .st32 {
        fill: #95bbdc;
      }

      .st33 {
        fill: #8dd4d8;
      }

      .st34 {
        fill: #9088ce;
      }

      .st35 {
        fill: #9baedd;
      }

      .st36 {
        fill: #91cddd;
      }

      .st37 {
        fill: #8fcfd9;
      }

      .st38 {
        fill: #beddb4;
      }

      .st39 {
        fill: #9d9ddc;
      }

      .st40 {
        fill: #a196dd;
      }

      .st41 {
        fill: #9bafde;
      }

      .st42 {
        fill: #9b9bd9;
      }

      .st43 {
        fill: #9ea0dd;
      }

      .st44 {
        fill: #8ed4d7;
      }

      .st45 {
        fill: #e1e2ec;
      }

      .st46 {
        fill: #908acf;
      }

      .st47 {
        fill: #f3edcb;
      }

      .st48 {
        fill: #9ca5dd;
      }

      .st49 {
        fill: #a09bdd;
      }

      .st50 {
        fill: #a294dc;
      }

      .st51 {
        fill: #90c9d9;
      }

      .st52 {
        fill: #94c2dc;
      }

      .st53 {
        fill: #9692d4;
      }

      .st54 {
        fill: #928bd0;
      }

      .st55 {
        fill: #9194d1;
      }

      .st56 {
        fill: #a198dd;
      }

      .st57 {
        fill: #91cadc;
      }

      .st58 {
        fill: #94bddc;
      }

      .st59 {
        fill: #a197dd;
      }

      .st60 {
        fill: #c3e0b6;
      }

      .st61 {
        fill: #9da0dc;
      }

      .st62 {
        fill: #918bd0;
      }

      .st63 {
        fill: #8f86cd;
      }

      .st64 {
        fill: #9da2dc;
      }

      .st65 {
        fill: #92c6db;
      }

      .st66 {
        fill: #a09cdd;
      }

      .st67 {
        fill: #8f87cd;
      }

      .st68 {
        fill: #928cd0;
      }

      .st69 {
        fill: #f8f1d8;
      }

      .st70 {
        fill: #9899d7;
      }

      .st71 {
        fill: #9896d6;
      }

      .st72 {
        fill: #95bcdc;
      }

      .st73 {
        fill: #bfddb3;
      }

      .st74 {
        fill: #918acf;
      }

      .st75 {
        fill: #95bddb;
      }

      .st76 {
        fill: #f7f2db;
      }

      .st77 {
        fill: #90cada;
      }

      .st78 {
        fill: #8dd3d9;
      }

      .st79 {
        fill: #9c98d9;
      }

      .st80 {
        fill: #a09ddd;
      }

      .st81 {
        fill: #9089ce;
      }

      .st82 {
        fill: #9da4dd;
      }

      .st83 {
        fill: #f3ecc5;
      }

      .st84 {
        fill: #a295dd;
      }

      .st85 {
        fill: #9da1dd;
      }

      .st86 {
        fill: #9b9dda;
      }

      .st87 {
        fill: #9592d4;
      }

      .st88 {
        fill: #8dd3d8;
      }

      .st89 {
        fill: #c0deb5;
      }

      .st90 {
        fill: #9aabdd;
      }

      .st91 {
        fill: #f0ebc2;
      }

      .st92 {
        fill: #8fceda;
      }

      .st93 {
        fill: #90ccdc;
      }

      .st94 {
        fill: #9da2dd;
      }

      .st95 {
        fill: #a293dd;
      }

      .st96 {
        fill: #f8f1d7;
      }

      .st97 {
        fill: #9e9bdb;
      }

      .st98 {
        fill: #8dd5d8;
      }

      .st99 {
        fill: #f8f2da;
      }

      .st100 {
        fill: #e4e5ec;
      }

      .st101 {
        fill: #95badc;
      }

      .st102 {
        fill: #f0e9bc;
      }

      .st103 {
        fill: #c0dfb3;
      }

      .st104 {
        fill: #f8f3de;
      }

      .st105 {
        fill: #918cd0;
      }

      .st106 {
        fill: #9da3dc;
      }

      .st107 {
        fill: #9aafdd;
      }

      .st108 {
        fill: #98a7da;
      }

      .st109 {
        fill: #91ccdc;
      }

      .st110 {
        fill: #9da1dc;
      }

      .st111 {
        fill: url(#linear-gradient);
      }

      .st112 {
        fill: #9f99dc;
      }

      .st113 {
        fill: #9ea1dd;
      }

      .st114 {
        fill: #91bcd8;
      }

      .st115 {
        fill: #94c0dc;
      }

      .st116 {
        fill: #9f9ddd;
      }

      .st117 {
        fill: #9f9edd;
      }

      .st118 {
        fill: #9f9adc;
      }

      .st119 {
        fill: #9da3dd;
      }

      .st120 {
        fill: #f1ebc0;
      }

      .st121 {
        fill: #94bcdb;
      }
    </style>
    <linearGradient id="linear-gradient" x1="680" y1="371.5" x2="682" y2="371.5" gradientUnits="userSpaceOnUse">
      <stop offset="1" stop-color="#8dd4d8"/>
      <stop offset="1" stop-color="#000"/>
    </linearGradient>
    <linearGradient id="linear-gradient1" x1="672" y1="444.5" x2="672.5" y2="444.5" gradientUnits="userSpaceOnUse">
      <stop offset="1" stop-color="#000"/>
      <stop offset="1" stop-color="#8dd4d8"/>
    </linearGradient>
  </defs>
  <path class="st121" d="M389,331h13l19,3,15,5,15,8,10,8,13,13,8,13,6,14,3,13,1,8v18l-2,14-5,18-8,20-2,7v11l3,5,8,3,6,1h8l11-3,8-6,5-7,3-11,1-34,3-10,6-10,5-4,1-16,3-4,3-1h39l5,3,2,2v29l-5,5-26,1-2,1,2,7v9l-2,3h-3l2,7,1,7,5,3,2,4v8l-3,5-2,2h-4l-2,9-5,9,3,1v6l-4,6-5,4h-5l-4-1-7,6-5,3,1,4-5,5-6,3,5,4,14,7,7,2h17l6-1v-16l2-2h42l3,4v35l-1,9-3,3h-28l-2,4-8,4-7-1-2-2v-3l-10,3h-6l-1,6-6,2-10-1-5-4v-5l-8-1-10-3-2,4h-7l-10-6-1-7v-2l-9-7v3l9,27,8,13,4,5,10,7,3,2,3,24,3,7,10,1-2,5-6,2h-7l-6-3-1-6-9-1-8-3-1,3-6,1-10-6-2-3,1-7-12-12-5,1-5-3-4-5-1-2v-8l2-4-6-13v-2l-6,1-6-7-1-2v-9l2-3h2l-7-13-6-5-4-1,2,5v8l-3,5-5,2,2,17,3-1,4,2,3,8v7l-2,4-5,1v14l-1,5,4,2,1,2v8l-4,7-7,1-7,11-6,6,1,7-4,5-8,4-16-1-4,1h-11l-11-4-4-4h-6l-4-4-7-26-2-8,1-7,9-3,16-4h7l3,5,1,8h2v-2l2-1,9,1,5,1,2-10-1-14-8-36-2-17-3,4,1,9-3,6-6,5h-7l-9,11,1,8-7,8-7,2-4-2v-2l-14,7h-3l1,5-4,4-5,2h-10l-3-3v-3h-17l-1,4-4,2-8-1-7-4-1-7-8-5h-5l-3,3-8,1-2-1h-8l-25,3-2-2-7-38v-7l4-1,2,8,6,33,22-2h8l6,1,6-4,22-5h5l-7-38,1-5,4,1,5,24v4h15l13-4,10-7,8-8,4-6-12-1-5-5,1-3-11-1-6-2-1,4-1,1h-8l-8-4-2-3,1-5,1-2-5-2-8-6-2,2-6-1-6-7-1-2v-7l2-2-1-5-2-7-6-2-3-6v-8l3-5,5-1v-14l-4-4v-9l13-6-10,3-6,1,1-5,4-2v-4l-5,1-8-4-4-5-2-7,3-1,5,9,3,2,6,1,7-3,3-4v-14l3,1,2,7-1,7-3,5-3,3-1,4,9-1,3,2,2-6,2-5,1-6,4,2,5,7,3,10,1,36,4,11,6,8,11,6,4,1h16l9-4,5-5,2-5v-13l-5-14-6-15-5-18-1-6v-30l4-16,5-12,7-12,12-13,11-9,14-8,18-6,19-3Z"/>
  <path class="st61" d="M485,529l5,1,24,13,8,4,3,3-1,4-8,4,5,4,14,7,7,2h17l6-1v-16l2-2h42l3,4v35l-1,9-3,3h-28l-2,4-8,4-7-1-2-2v-3l-10,3h-6l-1,6-6,2-10-1-5-4v-5l-8-1-10-3-2,4h-7l-10-6-1-7v-2l-9-7v3l9,27,8,13,4,5,10,7,3,2,3,24,3,7,10,1-2,5-6,2h-7l-6-3-1-6-9-1-8-3-1,3-6,1-10-6-2-3,1-7-12-12-5,1-5-3-4-5-1-2v-8l2-4-6-13v-2l-6,1-6-7-1-2v-9l2-3h2l-7-13-6-5-4-1,2,5v8l-3,5-5,2,2,17,3-1,4,2,3,8v7l-2,4-5,1v14l-1,5,4,2,1,2v8l-4,7-7,1-7,11-6,6,1,7-4,5-8,4-16-1-4,1h-11l-11-4-4-4h-6l-4-4-7-26-2-8,1-7,9-3,16-4h7l3,5,1,8h2v-2l2-1,9,1,5,1,2-10-1-14-8-36-2-17-3,4,1,9-3,6-6,5h-7l-9,11,1,8-7,8-7,2-4-2v-2l-14,7h-3l1,5-4,4-5,2h-10l-3-3v-3h-17l-1,4-4,2-8-1-7-4-1-7-8-5h-5l-3,3-8,1-2-1h-8l-25,3-2-2-7-38v-7l4-1,2,8,6,33,22-2h8l6,1,6-4,22-5h5l-7-38,1-5,4,1,5,24v4h15l13-4,10-7,8-8,4-6-12-1-5-5,1-3-11-1-6-2-1,4-1,1h-8l-8-4-2-3,1-5,7,1,2-4h8l1,4h-2l1,3,3-1,5-1,5,3,2-5,5-3h16l7-6,1-2h2l2-4,5-4,1,2-2,4,6,2,1,4,20,1,9,2,2-5,2,1v3l6-1h13l6-2,3,1h12l6,2h13l4-2,16,1,4-1-4-3,2-2,11-1-2,4,2,1,2-4,8-1h13l-2,4-2,1,2,1,9-1,9-2v-3l-4-5-2-1v-2h-2v-2h-2v-2Z"/>
  <path class="st19" d="M549,407h39l5,3,2,2v29l-5,5-26,1-2,1,2,7v9l-2,3h-3l2,7,1,7,5,3,2,4v8l-3,5-2,2h-4l-2,9-5,9,3,1v6l-4,6-5,4h-5l-4-1-7,6-5,3,1,4-2,2-3-3v-2l-4-1-14-7-14-8-5-2v2h2v2h2v2l4,2,4,5-1,3-8,1-5,2h-6l-3-3,4-2,1-2-13,1-8,1-2,3-4-1,4-4-11,2v2l3,3-10,1-11-1-4,2h-13l-7-2h-11l-5-1-4,2h-14l-6,1v-4l-3,4-16-1-11-1-2-1-1-3-6-3,1-5-6,5-1,2h-2l-2,4-6,5h-16l-5,3-1,5-6-3-5,1-4,2v-3l1-6-8,1-2,3-6-1v-2l-5-2-8-6-2,2-6-1-6-7-1-2v-7l2-2-1-5-2-7-6-2-3-6v-8l3-5,5-1v-14l-4-4v-9l13-6-10,3-6,1,1-5,4-2v-4l-5,1-8-4-4-5-2-7,3-1,5,9,3,2,6,1,7-3,3-4v-14l3,1,2,7-1,7-3,5-3,3-1,4,9-1,3,2,2-6,2-5,1-6,4,2,5,7,3,10,1,36,4,11,6,8,11,6,4,1h16l9-4,6-3,2,1v2l7-1-1-3-3-2v-2l7-1h8l6,1,2-1,1-3h8l7-2h9v2l5-2h3l1-2,5,1-6-4-6-7-2-9,4-4,6,2,8,3,12,1,10-2,7-3h6l2,2-1,8-6,8-5,4-10,4,2,1,8,1,4,1,3-3,3,2,6-3,3-1,6,4,5-2h5l1,3,13,2,4,1,7-1,6-1,9,4,6,1h8l11-3,8-6,5-7,3-11,1-34,3-10,6-10,5-4,1-16,3-4,3-1Z"/>
  <g id="head">
    <path class="st111" d="M389.5,330h13l19,3,15,5,15,8,10,8,13,13,8,13,6,14,3,13v5h-8l-1-3-2,4h-1l-1-5-1,5h-1v-5h-2v3l-4,1-9-1v-2l-3,1v-6l-6-5-3-1h-8l-2,1v6l-9,3-12,2-13,1-5-1h-32l-3-3,2-1,16-1-7-1h-16v2h3v3l-6,1-7-3v-3l1-4-3-2h-7l-6,3h-2l-1,6h6l-1,5h-9l-6-4-4-1v-2l-5-1v5l-2-3-1,2-7,3h-4l3-16,7-16,7-11,11-12,11-9,14-8,18-6,19-3Z"/>
  </g>
  <path id="tenacle-2" class="st95" d="M410,604l5,2,3,8v7l-2,4-5,1v14l-1,5,4,2,1,2v8l-4,7-7,1-7,11-6,6,1,7-4,5-8,4-16-1-4,1h-11l-11-4-4-4h-6l-4-4-7-26-2-8,1-7,9-3,16-4h7l3,5,1,8h2v-2l2-1,9,1,5,1,2-10-1-14-3-13v-6l3,1v-2h6v2l4,2v2l3-1,11,2,9,1,5,1-1-9,2-2Z"/>
  <g id="tenacle-3">
    <path class="st72" d="M543,409.5h39l5,3,2,2v29l-5,5-26,1-2,1,2,7v9l-2,3h-3l2,7,1,7,5,3,2,4v8l-3,5-2,2h-4l-2,9-3,5h-2l-2,5h-3l-5-3-5,3-9-1-4,1-9-3,3,2,5,2,1,2-4,3h-6l-4-2-1-3-10-4-2-4-2-1,15-4,8-6,5-7,3-11,1-34,3-10,6-10,5-4,1-16,3-4,3-1Z"/>
  </g>
  <path class="st12" d="M233,567h13l4,18,4,22v5l-27,6-6,4-6-1-17,1-13,1-2-6-5-28,1-8-1-5,6-2h20l7,2,10-6,12-3Z"/>
  <path class="st93" d="M341,398h7l4,3-1,4-1,2,7,3h6v-3h-3v-2l9-1h11l7,1-4,2-16,1-1,1,2,1h32l8,1,18-2,7-1,1-2,4-2,1-5,2-1h8l6,3,4,4v5h2v2h13v-3h3l1-6h1l1,10,2-4,1,4,6-1,2,1,1,3v16h-3l-3-6-1,2h-2l-5-5-2,1-3-1-1,3-7,2-7-6-5-2h-13l-9,4-1-1h-13l-4,2-3-1-6,3v3l-3,3-11,1-11-1-2-1-1-3-2-1v-3l-6-2-7-1-3,2-8-4h-13l-8,4h-2v-2h-15v2h3l-1,3-4,1v-3l-3,2-2,5h-2v2l-4,1v-23l8-3h3l2-4,6,1v2l5-1v2l4,2,5,1h5v-3h-5l-1-4,5-5,5-2Z"/>
  <path id="tenacle-1" class="st95" d="M478,600h2l6,16,7,11,4,5,10,7,3,2,3,24,3,7,10,1-2,5-6,2h-7l-6-3-1-6-9-1-8-3-1,3-6,1-10-6-2-3,1-7-12-12-5,1-5-3-4-5-1-2v-8l2-4-6-13v-2l3-1,4,2,4,4,1,3h7v-2h7l1-2,4-1,2-6,7-4Z"/>
  <path id="tenacle-4" class="st95" d="M248,569l4,1,5,24v4l16,1,3,9,15,4,11,1,7-5,7-1,6,3,2,4,7-4,4,1-1,7-8,7-5,1-4-2v-2l-14,7h-3l1,5-4,4-5,2h-10l-3-3v-3h-17l-1,4-4,2-8-1-7-4-1-7-8-5h-5l-3,3-8,1-2-1h-8l-25,3-2-2-7-38v-7l4-1,2,8,6,33,22-2h8l6,1,6-4,22-5h5l-7-38,1-5Z"/>
  <path id="tenacle-5" class="st72" d="M232,428l3,1,2,7-1,7-3,5-3,3-1,4,9-1,3,2,2-6,2-5,1-6,4,2,5,7,3,10,1,36,4,11,6,8,3,2v2l-6,1-3-3-6-1-2,2v-4h-2v4h-13l-8,3-3,2-2-6-6-2-3-6v-8l3-5,5-1v-14l-4-4v-9l13-6-10,3-6,1,1-5,4-2v-4l-5,1-8-4-4-5-2-7,3-1,5,9,3,2,6,1,7-3,3-4v-14Z"/>
  <path class="st25" d="M720,489h10l6,3,2,2,1-4h12v42l-3,7-5,5-6,3-5,1h-10l-10-3-4-2,2-6,2-4,9,3h10l5-3,1-7-6,4h-12l-8-5-5-10v-11l4-8,5-5,5-2Z"/>
  <path class="st73" d="M549,407h39l5,3,2,2v29l-5,5-26,1-7,6-4,3h-2l1-10-6-1-3-3-1-14,1-16,3-4,3-1Z"/>
  <path class="st30" d="M536,621h8l4,5,3,31v11l-5,4-15,1h-15l-3-4-2-12-2-22v-9h2v-2l25-3Z"/>
  <path class="st29" d="M440,419h13l8,4,6,7,3,7,1,9-3,10-6,8-8,4-3,1h-9l-8-3-7-6-4-9-1-10,4-11,6-7,8-4Z"/>
  <path class="st73" d="M341,638h7l3,5,4,18,3,13,1,7-5,4-22,5-6-1-4-9-7-28,1-7,9-3,16-4Z"/>
  <path class="st12" d="M233,567h13l4,18,4,22v5l-27,6-6,4-9-2v-2l9,1-7-32-2-11,9-6,12-3Z"/>
  <path class="st93" d="M567,552h42l3,4v21l-2,7-1,3h-42l-3-5v-12l1-16,2-2Z"/>
  <path class="st75" d="M775,489h13l8,4,5,5,3,6,1,4v7l-5,10-8,6-7,2h-8l-10-4-7-8-2-6v-7l3-9,7-7,7-3Z"/>
  <path class="st16" d="M213,413h9l3,1,7,1,6,4v2h2l4,5,2,6v13l-5,11-8-1h-4l1-5,4-4,2-6-1-9-3-3,1,4v10l-5,6-7,2-7-2-4-5-2-5-2,1,3,8,5,4,7,3-5,5-4,2-5-1-7-7-4-9v-8l3-10,2-4h2v-2h2v-2l8-5Z"/>
  <path class="st72" d="M874,489h11l8,3,5,6,1,3v31h-12l-2-3-4,3-4,1h-7l-8-4-3-7,1-7,3-5,6-3,13-1,4,1-2-5-1-1h-12l-5,1-3-7v-3l5-2,6-1Z"/>
  <path class="st58" d="M680,489h9l7,4,3,8v31h-13l-1-1-1-29h-9l-2,2-1,28h-14v-42h14l-1,4,9-5Z"/>
  <path class="st6" d="M834,489h9l5,3,3,3,2,7v30h-13l-1-1-1-27-2-2h-6l-3,2-1,7-1,21h-13v-42h13l1,4,5-4,3-1Z"/>
  <path class="st85" d="M588,475h14l1,44h25l1,1v11l-1,1h-40v-57Z"/>
  <path class="st108" d="M356,648l9,1,18,7,3,3-1,7-7,21-2,5-4,2-5-2v2l-8-1-9-2h-9v-2l-2-1,10-3,7-2,2-3-3-17-2-7,1-7,2-1Z"/>
  <path class="st85" d="M709,511l2,2,6-1,4,2,4,4h8l7-4,3,1v-2l6,1,2,1v17l-3,7-5,5-6,3-5,1h-10l-10-3-4-2,2-6,2-4,9,3h10l5-3,1-7-6,4h-12l-8-5-5-10,2-1,1-3Z"/>
  <g id="left-eye">
    <path d="M341,427h12l6,4,4,7,1,10-3,8-7,6-3,1h-8l-6-3-4-5-2-5v-11l3-6,7-6Z"/>
  </g>
  <path class="st29" d="M337,419h13l8,4,7,8,3,9v8l-3,9-6,7-7,4-4,1h-9l-9-4-8-9-2-5v-14l5-10,7-6,5-2ZM341,427l-8,7-2,5v11l4,8,5,4,3,1h8l6-3,5-6,2-6-1-10-4-7-6-4h-12Z"/>
  <path id="right-eye" class="st28" d="M442,426l8,2,6,5,3,8v7l-4,10-5,4-3,1h-9l-6-4-4-4-2-6v-9l4-8,5-4,7-2Z"/>
  <path class="st88" d="M567,552h42l3,4v21l-4-3h-4l-3,8-5-1,2-4,3-3,1-7-5-6v-2l-7-1-2,6h-1v-6h-6l-4,3-1,3-2,1v10h-3v9l5,1v2h-9l-3-5v-12l1-16,2-2Z"/>
  <path class="st7" d="M372,477l6,2,8,3,12,1,10-2,7-3h6l2,2-1,8-6,8-4,2-7-5-3-1h-12l-10,5h-4l-6-7-2-9,4-4Z"/>
  <path class="st85" d="M895,508l3,1,1,2v21h-12l-2-3-4,3-4,1h-7l-8-4-3-7,1-7,4-3,9-2,1,3,3-1,2,2-5,2v6l7,1,4-3v-6h3v-3l7-3Z"/>
  <path class="st85" d="M804,508h1v7l-5,10-8,6-7,2h-8l-10-4-7-8-2-9h3l8-2h3l2,9,4,1h7l6-6,7-1,3-1,3,1v-5Z"/>
  <path class="st6" d="M635,490h13l1,1v41h-14v-42Z"/>
  <path class="st57" d="M356,648l9,1,18,7,3,3-1,7-7,19-2,1-6-3,1-5,2-2v-7l-4-5-3-1h-7l-3,1-2-3-1-10,3-3Z"/>
  <path class="st58" d="M213,415h8l5,5,5,14v6l-5,6-2,1h-6l-6-5-5-16,1-7,5-4Z"/>
  <path class="st98" d="M588,475h14v44h-1v-6l-5,2-7,1-1-1v-40Z"/>
  <path class="st84" d="M739,527l10,2,1,1v6l-5,7-8,4-5,1h-10l-10-3-4-2,2-6,2-4,9,3h10l5-3,3-6Z"/>
  <path class="st58" d="M667,497l7,4-1,3-1,28h-14v-24l1-9,8-2Z"/>
  <path class="st116" d="M536,626h6l2,2v7l-10-5,3,3,5,3-2,5-11,21-8,5h-2v-9l2,4,5-1,1-2-8-2,2-6,10-20,5-5Z"/>
  <path class="st5" d="M468,555h3l8,14,7,17,4,7,8,5,6,3-1,5h-7l-10-6-1-7v-2l-9-7-3-5-6-20,1-4Z"/>
  <g id="tenacle-6">
    <path class="st84" d="M555,601l5,2,1-2v2l18,1-1,3-8,4-7-1-2-2v-3l-10,3h-6l-1,6-6,2-10-1-12.79.76-49.77-51.35,3.66-.83,34.9-17.58,92,29-41,26Z"/>
  </g>
  <path class="st109" d="M541,429l2,3,1,12,8,2v6l-1-3-12,6-6-1-1,7-3,1-1,2v-12l3-10,6-10,4-3Z"/>
  <path class="st18" d="M611,582l1,3-1,15-1,2h-31l-11-1-3-2,1-2,3,2h14l25-1,2-3-41,1-4-3,1-2,2,2h41v-3h-41l-4-4v-2h2l1,2,42,1,1-4,1-1Z"/>
  <path class="st3" d="M779,500l7,1,4,4,1,2v7l-4,6-2,1h-7l-4-2-2-4v-9l4-5,3-1Z"/>
  <path class="st63" d="M390,491h12l8,4,3,4-12,5h-10l-11-4-2-2,9-6,3-1Z"/>
  <path class="st25" d="M680,489h9l7,4,1,3-5,1h-9l-3,2,1,2-7,1-3-1-2-2-2-1-8,1v9h-1v-18h14l-1,4,9-5Z"/>
  <path class="st48" d="M232,428l3,1,2,7-1,7-3,5-3,3-1,4,9-1v4l-16,6h-3l1-5,4-2v-4l-5,1-8-4-4-5-2-7,3-1,5,9,3,2,6,1,7-3,3-4v-14Z"/>
  <path class="st3" d="M726,500h6l5,4,1,2v8l-5,5h-8l-5-5-1-6,3-6,4-2Z"/>
  <path class="st9" d="M834,489h9l5,3,3,3,1,6-2-2-17-1-9,1-1-1-10-1-1,3v-10h13l1,4,5-4,3-1Z"/>
  <path class="st96" d="M242,424l2,2,2,6v13l-5,11-8-1h-4l1-5,4-4,2-6v-9l3,1,2-6,1-2Z"/>
  <path class="st25" d="M874,489h11l8,3,2,3-12,5-12,1-5,1-3-7v-3l5-2,6-1Z"/>
  <path class="st67" d="M581,557l6,1v21l-2,2-5-1-6-5-1-10,3-1,1-4,4-3Z"/>
  <path class="st13" d="M590,557l5,1,5,5,3,4-1,7-5,5-6,2-3-2,1-21,1-1Z"/>
  <path class="st25" d="M775,489h13l8,4,4,3-1,2-11,1-5-1-13,1-9,2,2-4,7-6,5-2Z"/>
  <path class="st94" d="M846,510l6,1,1,21h-13l-1-1,1-16,6-5Z"/>
  <path class="st58" d="M833,497l17,1,3,4v28h-1v-19h-6l-5,4-1,8h-1l-1-19-2-2-4-1,1-4Z"/>
  <path class="st6" d="M589,496h8l4,2,1,7v14h-1v-6l-5,2-7,1-1-1v-13l1-6Z"/>
  <path class="st94" d="M823,512l2,1v19h-13v-18l11-2Z"/>
  <path class="st94" d="M639,513h7l2,1,1,18h-14l1-18,3-1Z"/>
  <path class="st102" d="M213,413h9l3,1,7,1,6,4v2h2l2,5-3,6-4-1-3-3v6h-2l-6-16-3-2h-8l-3,1,1-3,2-1Z"/>
  <path class="st119" d="M248,569l4,1,5,24v4l9,1-2,1v3l-5,2-4-3,1,6-2,4-7-38,1-5Z"/>
  <path class="st33" d="M356,648l9,1,18,7,2,4-2,1v-2l-5,1-6-2v2l-7,1-2-2-1-4-9,1,1-7,2-1Z"/>
  <path class="st14" d="M358,664h10l4,4,1,6-5,5h-8l-2,1-2-15,2-1Z"/>
  <path class="st40" d="M335,688l6,1,1,1h8l17,4v-2l6,1h3l-2,4h-10l-4,1h-11l-11-4-4-5,1-1Z"/>
  <path class="st4" d="M747,498l4,2v15l-8-2v2h-6v-14l3-2,7-1Z"/>
  <path class="st85" d="M872,510l2,1v2l3-1,2,2-5,2v6l2,2-2,3h-2v-2h-8v4h-2l-3-7,1-7,4-3,8-2Z"/>
  <path class="st58" d="M709,498l12,1,3,1-4,8v5l-10,1-1-2-1,2h-2v-10l3-6Z"/>
  <path class="st81" d="M353,570l6,3-1,6,1,7-3,6-6,5h-5v-5l5-8,3-14Z"/>
  <path class="st34" d="M303,558l4,1,4,2h2v2l-3,2-1,5-5,2h-9l-5-5,2-3,8-4,3-2Z"/>
  <path class="st38" d="M179,584l2,3,4,22,1,9,7-1h15l4,1v2l-23,3-5-1-6-33,1-5Z"/>
  <path class="st59" d="M176,581l2,2,6,34-1,4-1-2-3,3-6-33v-7l3-1Z"/>
  <path class="st115" d="M565,594l8,1h37l-2,4-25,1h-14l-4-4v-2Z"/>
  <path class="st85" d="M660,518h9l2,1,1,13h-14v-12l2-2Z"/>
  <path class="st25" d="M213,415h8l5,5,1,4-1,1-15,1v2l-3,1-1-7,3-5,3-2Z"/>
  <path class="st52" d="M565,588l3,1,41,1v3l-2,1h-39l-3-4v-2Z"/>
  <path class="st113" d="M695,517h4v14h-12l-1-2v-9l1-2,8-1Z"/>
  <path class="st85" d="M229,434h2v6l-5,6-2,1h-6l-6-5v-4l8-2,9-2Z"/>
  <path class="st70" d="M611,582l1,3v6l-3,1v-2h-41l-4-4v-2h2l1,2,42,1,1-4,1-1Z"/>
  <path class="st98" d="M635,473h14v11h-14v-11Z"/>
  <path class="st34" d="M331,610l4,1-1,7-8,7-5,1-4-2,1-4,10-8,3-2Z"/>
  <path class="st81" d="M410,604l5,2,3,8v7l-2,4-4,1-2-3-2-17,2-2Z"/>
  <path class="st7" d="M441,398h8l6,3,4,4v4l-6-1-2-1-10-1-3-2,1-5,2-1Z"/>
  <path class="st81" d="M243,628l17,5,1,5-4,2-8-1-7-4-1-5,2-2Z"/>
  <path class="st81" d="M524,607l20,1,1,4-3,3-9,1-7-2-2-2v-5Z"/>
  <path class="st34" d="M296,630l4,1,1,3-4,4-5,2h-10l-2-2v-4l16-4Z"/>
  <path class="st34" d="M426,588h4l7,16-1,4-5-1-5-6-1-2v-9l1-2Z"/>
  <path class="st67" d="M513,544l9,3,3,3-1,4-6,3h-5l-5-4v-5l5-4Z"/>
  <path class="st7" d="M341,398h7l4,3-1,4-1,1-11,1-4,2-4-1,1-4,4-4,5-2Z"/>
  <path class="st17" d="M469,656l5,2,10,6,3,2-1,4-6,1-10-6-2-3,1-6Z"/>
  <path class="st34" d="M443,625l4,1,5,8,4,7-3,3-5-2-5-6-1-2v-8l1-1Z"/>
  <path class="st78" d="M635,490h13l1,1v19h-1v-12l-11,1-1,10h-1v-19Z"/>
  <path class="st54" d="M506,671h9l1,1,10,1-2,5-6,2h-7l-6-3v-5l1-1Z"/>
  <path class="st74" d="M388,684l4,1-1,6-8,6-9,1,1-5,11-8,2-1Z"/>
  <path class="st105" d="M182,618l3,4h19l-2,4-9,2-11,1-2-2v-7l2-2Z"/>
  <path class="st34" d="M409,646l5,1,1,2v8l-4,7-6,1-1-3,5-16Z"/>
  <path class="st62" d="M229,528l4,1,5,9,4,4-1,4-6-1-6-7-1-2v-7l1-1Z"/>
  <path class="st74" d="M553,521l3,1v6l-4,6-5,4h-5l-1-4,3-1,2-4,7-8Z"/>
  <path class="st103" d="M246,570l2,4,6,33v5l-10,2-4-1,8-4h2l-1-12-4-21,1-6Z"/>
  <path class="st37" d="M581,559l4,1v2h-3l-1,6,4,1v2h-4v3h4l-1,5-4-1-4-3,1-5-3-1,2-4h2v-4l3-2Z"/>
  <path class="st44" d="M541,429l2,3v9l-3,3-6,1-3-1,2-6,5-7,3-2Z"/>
  <path class="st56" d="M207,620h8l6,1,2-1v3l3,1-1,2-8,1-2-1h-13l2-4h-6v-1l9-1Z"/>
  <path class="st59" d="M225,451l3,1,1,2h9v4l-16,6h-3l1-5,4-2,1-6Z"/>
  <path class="st35" d="M685,507h1v5l11-1,1,1v6h-11v13h12v1h-13l-1-1v-24Z"/>
  <path class="st99" d="M204,432l6,1,3,9,5,4h6l5-4,3-10h1v10l-5,6-7,2-7-2-4-5-3-7-3-3v-1Z"/>
  <path class="st63" d="M590,557l5,1,5,5,3,4-1,7-5,5-6,2-3-2,1-21,1-1ZM590,559v15l1,5,4-1,1-3,4-1,1-6-1-2-3-1v-3h-2l-1-3h-4Z"/>
  <path class="st71" d="M211,578l2,1,6,27,2,13-3-1-6-28-2-11,1-1Z"/>
  <path class="st81" d="M255,554l5,1,10,5-1,5-5,1-8-4-2-3,1-5Z"/>
  <path class="st3" d="M876,514h9l1,1v5l-5,4-7-1-1-1v-6l3-2Z"/>
  <path class="st81" d="M410,569l3,1,1,3v8l-3,5-5,1v-9l4-9Z"/>
  <path class="st84" d="M863,524l9,1v2l2-2,4-1,1,3-2,4v2h-7l-6-3-1-6Z"/>
  <path class="st33" d="M775,489h13l8,4-1,2-6-1h-19l-1,2-3,1v-3l6-4,3-1Z"/>
  <path class="st107" d="M709,511l2,2,6-1,4,2,2,5-5,3-7-4h-4l-1-4h2l1-3Z"/>
  <path class="st107" d="M671,507h1v23h-1v-11h-12v-6l7-2,5,1v-5Z"/>
  <path class="st80" d="M531,634l4,1-8,16-3,4h-4l2-6,7-14,2-1Z"/>
  <path class="st33" d="M720,489h10l3,1,1,4-6,1h-7l-5,1-4-1v-2l8-4Z"/>
  <path class="st46" d="M566,603l13,1-1,3-8,4-7-1-2-2v-3l5-2Z"/>
  <path class="st107" d="M804,508h1v7l-2,3-5,1-3,3-5-1-3-2,4-5,7-1,3-1,3,1v-5Z"/>
  <path class="st4" d="M248,569l4,1,3,15v3h-5l-3-14,1-5Z"/>
  <path class="st107" d="M768,510h4l2,8-5,1-9-1-2-3,1-3h2l7-2Z"/>
  <path class="st67" d="M224,498h1l1,6v9l-4,1-3-4v-10l5-2Z"/>
  <path class="st101" d="M374,670h1v5h6l-1,5-3,6-7-3,1-5,2-2,1-6Z"/>
  <path class="st100" d="M352,431l5,2,1,1v5l-3,3-6-1-1-1v-6l4-3Z"/>
  <path class="st120" d="M244,437l2,1v7l-5,11-5-2,1-4,2-1,2,1-1-5v-5l1-2,3-1Z"/>
  <path class="st17" d="M564,487l5,1v8l-3,5-5,1,1-3v-8l2-4Z"/>
  <path class="st45" d="M436,431l5,2,1,1v5l-3,3-5-1-2-2v-5l4-3Z"/>
  <path class="st41" d="M743,513l6,1,2,1v5h-15v-4l5-2,2,1v-2Z"/>
  <path class="st33" d="M874,489h11l-1,2h-13v3l3,1-4,2-3,1v2l5-1-1,2-5,1-3-7v-3l5-2,6-1Z"/>
  <path class="st21" d="M560,450h2l2,5v9l-1,2-5-1v-11l2-4Z"/>
  <path class="st31" d="M526,653l1,4h2v-2h2l-1,5-4,4-5,3h-2v-9l2,4,5-1,1-2-8-2v-2l7-2Z"/>
  <path class="st107" d="M872,510l2,1v2l3-1,2,2-5,2-1,5-1-4h-12l2-4,10-3Z"/>
  <path class="st36" d="M588,490l1,3,3-1h8l2-2v15h-1v-7l-12-2v6h-1v-12Z"/>
  <path class="st113" d="M264,551h8l1,4h-2l1,3v3l-6-2-6-3,2-1,2-4Z"/>
  <path class="st41" d="M823,512l2,1v7h-13v-6l11-2Z"/>
  <path class="st81" d="M226,464h3l-1,10-1,4-4-1-1-2v-9l4-2Z"/>
  <path class="st55" d="M582,557l5,1v14l-2,2h-4v-3h4l-1-2-4-1,2-6h3l-1-2-3-2,1-1Z"/>
  <path class="st77" d="M588,559h1v20l2,1v2l2,1h-3v2l-6,1-1-5,3-2,1-15,1-5Z"/>
  <path class="st41" d="M599,513h2l1,7-5,1-9-1v-5l11-2Z"/>
  <path class="st42" d="M191,606h19l3,3-4,1h-19l-1-3,2-1Z"/>
  <path class="st0" d="M179,584l2,3,4,22-1,4-2-1-4-23,1-5Z"/>
  <path class="st118" d="M188,593h18l4,1v3h-22v-4Z"/>
  <path class="st69" d="M221,453h3l1,4-5,3v5l-8-2-2-2,7-4,4-2v-2Z"/>
  <path class="st11" d="M191,586h10l7,1,1,3h-23v-3l5-1Z"/>
  <path class="st43" d="M186,580h20l2,1v2l-22,1v-4Z"/>
  <path class="st41" d="M895,508l3,1,1,6-2,1-11,1-1-3h3v-3l7-3Z"/>
  <path class="st90" d="M569,601h13l26,1v1h-28l-1,2-11-1,1-3Z"/>
  <path class="st86" d="M195,599h9l7,1v3h-22v-3l6-1Z"/>
  <path class="st41" d="M846,510l6,1v6l-7,1-5,1,1-5,5-4Z"/>
  <path class="st107" d="M225,431l5,1-1,3-14,3h-3l-1,2v-4l5-3,9-2Z"/>
  <path class="st33" d="M213,415h8l4,4-7,1-2,1-1-2-4,3-2-1v2l-2-1,3-5,3-2Z"/>
  <path class="st49" d="M238,588l5,1-3,2-17,6h-3l1-3,17-6Z"/>
  <path class="st2" d="M695,524h3v7h-11l-1-3,9-4Z"/>
  <path class="st33" d="M680,489h9l4,2-4,1-1,2-12,1-2-3,6-3Z"/>
  <path class="st119" d="M234,574h6v2l-22,7v-3l12-5,4-1Z"/>
  <path class="st92" d="M590,559l5,1v2h2l-1,4h-4l1,4h2v2h-5v-13Z"/>
  <path class="st23" d="M778,528h7l2,2,5-1v2l-7,2h-8l-5-2,4-1h2v-2Z"/>
  <path class="st24" d="M176,581l2,2,1,10h-3v2h-2l-1-13,3-1Z"/>
  <path class="st15" d="M240,595l4,1-1,2-18,6h-3l1-3,17-6Z"/>
  <path class="st66" d="M236,581h5v2l-20,7h-2l1-3,16-6Z"/>
  <path class="st2" d="M659,526h12v5h-11l-1-5Z"/>
  <path class="st8" d="M536,626h6l2,2v7l-8-4-3-1,1-3,2-1Z"/>
  <path class="st97" d="M333,652l3,1,5,18v3h-2l-6-19v-3Z"/>
  <path class="st53" d="M565,597l4,2h22l4,2v1h-16l-11-1-3-2v-2Z"/>
  <path class="st43" d="M447,617h2l1,2v9h-3l-3-4-1-5,4-2Z"/>
  <path class="st41" d="M639,513h7l2,1v4h-10l-2-1v-3l3-1Z"/>
  <path class="st36" d="M638,492l10,3v3l-11,1-1-5h2v-2Z"/>
  <path class="st110" d="M222,493l4,1v10l-3-4-3,1-1,6h-1v-8l3-5,1-1Z"/>
  <path class="st94" d="M233,454h5v4l-12,4-1-2,4-1v-4l4-1Z"/>
  <path class="st1" d="M219,441h7v5l-2,1h-6l-3-2,1-3,3-1Z"/>
  <path class="st104" d="M232,432h1v10l-5,6-6,1v-2l6-4,2-3,2-8Z"/>
  <path class="st91" d="M537,636l2,2-10,19h-2l1-5,9-16Z"/>
  <path class="st89" d="M234,611h2v2l3-1,1,3-13,3h-3l5-5,5-2Z"/>
  <path class="st82" d="M176,593h3l2,11-4-1-1,3-1-11,1-2Z"/>
  <path class="st68" d="M227,617h7l-1,4h-5l-1,3-4-1v-4l4-2Z"/>
  <path class="st113" d="M367,692l6,1h3l-2,4h-13l1-3h5v-2Z"/>
  <path class="st116" d="M533,637l2,1-1,5-6,11h-3l2-5,6-12Z"/>
  <path class="st74" d="M590,557l5,1,5,5,3,4-1,4h-2v-5l-4-1,1-3h-2l-1-2-4-1v-2ZM596,571l4,1-4-1Z"/>
  <path class="st98" d="M834,489h9l3,2-9,1-5,2-4-2,6-3Z"/>
  <path class="st106" d="M344,686h6l2,5h-11v-2l-2-1,5-2Z"/>
  <path class="st83" d="M533,634l2,2-10,18-2,1,2-7,8-14Z"/>
  <path class="st87" d="M216,604h2l3,12v3l-3-1-2-8v-6Z"/>
  <path class="st113" d="M519,658l2,4,5-1,2-2v4l-7,4h-2v-9Z"/>
  <path class="st2" d="M816,526l5,1,3,4h-10l-1-4,3-1Z"/>
  <path class="st114" d="M591,565l9,1,1,3-1,2-5,1v-2h-2l-2-5Z"/>
  <path class="st50" d="M515,600l7,1,1,4h-8l-1-4,1-1Z"/>
  <path class="st35" d="M324,543l5,2,1,3-7,1-2-3,3-3Z"/>
  <path class="st84" d="M334,599l5,1-3,6-4-1-2-3h2v-2l2-1Z"/>
  <path class="st112" d="M532,630h2l3,3,2,1-1,3-3,2-2-4h-3l2-5Z"/>
  <path class="st51" d="M581,559l4,1v2h-3l-1,6-3-2v-5l3-2Z"/>
  <path class="st76" d="M233,459l3,1-10,5-5,1,1-3,11-4Z"/>
  <path class="st60" d="M246,570l2,4,1,12h-2l-2-11,1-5Z"/>
  <path class="st85" d="M254,546l4,1,1,3-1,4h-2v-2l-4-2,2-4Z"/>
  <path class="st33" d="M747,490h4v6l-9-3v-2l5-1Z"/>
  <path class="st43" d="M562,482l4,1,2,4h-2l-1,3-1-2-2,3v-9Z"/>
  <path class="st10" d="M241,448l2,1-1,5-1,2-5-2,1-4,2-1,2,1v-2Z"/>
  <path class="st32" d="M232,428l3,1,1,2v6l-3,3-1-12Z"/>
  <path class="st82" d="M188,593h6l1,1,8,1v1l-15,1v-4Z"/>
  <path class="st103" d="M179,584l2,3,1,8-2,3-2-9,1-5Z"/>
  <path class="st2" d="M624,528h4v3h-14l1-2,9-1Z"/>
  <path class="st39" d="M331,659l2,1,2,7v4h-2l-3-11,1-1Z"/>
  <path class="st65" d="M580,573l5,1-1,5-4-1-3-3,3-2Z"/>
  <path class="st78" d="M658,490h6l-1,2-3,2-1,14h-1v-18Z"/>
  <path class="st47" d="M212,443l4,2,6,2-1,3-7-2-2-2v-3Z"/>
  <path class="st27" d="M213,413h9l2,3h-11l-3,1,1-3,2-1Z"/>
  <path class="st20" d="M340,658l3,1,1,9h-2l-2-5v-5Z"/>
  <path class="st64" d="M518,545h7l2,5-2,2-3-3v-2l-4-1v-1Z"/>
  <path class="st26" d="M207,437l2,1,2,6-3,3-3-9,2-1Z"/>
  <path class="st49" d="M535,645l1,4-4,7-2-1,2-6,3-4Z"/>
  <path class="st117" d="M224,577l4,1-1,2-9,3v-3l6-3Z"/>
  <path class="st22" d="M601,574h2l-1,7-3,1-3-2,5-6Z"/>
  <path class="st66" d="M197,587h11l1,3-9-1-3-2Z"/>
  <path class="st32" d="M176,581h1l-1,7-2,2-1-1v-7l3-1Z"/>
  <path class="st85" d="M299,567l5,2-2,3h-7v-3h4v-2Z"/>
  <path class="st79" d="M567,424l5,1-1,4-2,1-3-2,1-4Z"/>
</svg>